<svg xmlns="http://www.w3.org/2000/svg" viewBox="0 0 836 404">
  <style>
    :root { color-scheme: light dark; }
    rect, path, circle { fill: #fff; stroke: #666; stroke-width: .5px; }
    text { fill: #444; font: normal 18px sans-serif; text-anchor: middle; }

    .level1  { font-size: 18px; }
    .level2  { font-size: 12px; fill: #888; }
    .letter  { font-size: 16px !important; }
    .no-bold  { font-weight: normal !important; }
    .pair    { font-size: 16px; font-weight: bold; }
    .accent  { font-size: 13px; fill: #2a7; }
    .accent2 { font-size: 12px; fill: #6b6; }
    .sym     { font-size: 13px; fill: #7370a9; font-weight: bold; text-anchor: start; }
    .nav     { font-size: 10px; fill: #e83; text-anchor: end; }
    .cap     { font-size: 12px; }
    .capTL   { font-size: 11px; text-anchor: start; }
    .accent.word { font-size: 10px; }
    .exit    { font-size: 10px; fill: #888; }
    .ghost   { font-size: 11px; fill: #888; text-anchor: start; }
    .emoji   { font-size: 21px; }
    .emoji.small { font-size: 15px; }
    .ename   { font-size: 9px; fill: #888; }
    .deadKey { fill: #e33; }
    .big     { font-size: 22px; }
    .specialKey rect { fill: #e4e4e4; }
    .title   { font-size: 15px; text-anchor: start; fill: #333; }
    .legend  { font-size: 11px; text-anchor: start; }
    .legend tspan { text-anchor: start; }
    .encTitle { font-size: 12px; }
    .encText  { font-size: 9px; text-anchor: start; }
    .encoder circle { fill: #f0f0f0; }

    /* combos: a pill in the gutter between the two keys pressed together */
    .combo rect { fill: #fff; stroke: #bbb; }
    .combo text { font-size: 8px; fill: #888; }
    .comboLbl   { font-size: 9px; fill: #888; }

    #left  { transform: translate(  4px, 124px); }
    #right { transform: translate(480px, 124px); }

    /* column stagger */
    .col_L { transform: translate(  0px, 22.5px); }
    .col_1 { transform: translate( 60px, 22.5px); }
    .col_2 { transform: translate(120px,  7.5px); }
    .col_3 { transform: translate(180px,  0.0px); }
    .col_4 { transform: translate(240px,  7.5px); }
    .col_5 { transform: translate(300px, 15.0px); }
    .ext_L { transform: translate(360px, 120.0px); }

    .col_6 { transform: translate(  0px, 15.0px); }
    .col_7 { transform: translate( 60px,  7.5px); }
    .col_8 { transform: translate(120px,  0.0px); }
    .col_9 { transform: translate(180px,  7.5px); }
    .col_0 { transform: translate(240px, 22.5px); }
    .col_R { transform: translate(300px, 22.5px); }
    .ext_R { transform: translate(-60px, 120.0px); }

    /* thumb clusters, positioned with magic numbers */
    .thb_1 { transform: translate( 90px, 205px); }
    .thb_2 { transform: translate(150px, 190px); }
    .thb_3 { transform: translate(210px, 190px); }
    .thb_4 { transform: translate(280px, 191px); }
    .thb_5 { transform: translate(360px, 182px); }
    .thb_4 g { transform: rotate(12deg); }
    .thb_5 g { transform: rotate(24deg); }

    .thb_0 { transform: translate(210px, 205px); }
    .thb_9 { transform: translate(150px, 190px); }
    .thb_8 { transform: translate( 90px, 190px); }
    .thb_7 { transform: translate( 20px, 201px); }
    .thb_6 { transform: translate(-57px, 201px); }
    .thb_7 g { transform: rotate(-12deg); }
    .thb_6 g { transform: rotate(-24deg); }

    /* the two layer keys carry the colour of the layer they reach */
    #sym rect { fill: #99f; }
    #sym text.accent { fill: #063; }
    #sym text.exit { fill: #fff; }
    #nav rect { fill: #e83; }
    #nav text.exit { fill: #fff; }
    #dk  rect { fill: #f99; }
    #edit rect { fill: #7dd; }
    #edit text.accent { fill: #063; }
    #edit text.exit { fill: #fff; }

    @media (prefers-color-scheme: dark) {
      rect, path, circle { fill: #444; }
      text             { fill: #bbb; }
      .specialKey rect { fill: #333; }
      .encoder circle  { fill: #3a3a3a; }
      .level2          { fill: #888; }
      .accent          { fill: #6b6; }
      .accent2         { fill: #4a4; }
      .ghost           { fill: #999; }
      .ename           { fill: #999; }
      .title           { fill: #ccc; }
      .exit            { fill: #999; }
      .combo rect      { fill: #333; stroke: #777; }
      .combo text      { fill: #aaa; }
      .comboLbl        { fill: #aaa; }
      #dk  rect        { fill: #b44; }
      #edit rect       { fill: #277; }
      #edit text.accent { fill: #cff; }
      #nav rect        { fill: #c72; }
      #sym rect        { fill: #77d; }
      #dk  text,
      #nav text,
      #edit text,
      #sym text.exit,
      #sym text.capTL  { fill: #fff; }
      #sym text.accent { fill: #cfc; }
    }
  </style>

  <text x="8" y="22" class="title">Base / NavNum / Symbol / 1dk ★</text>
  <text x="8" y="42" class="legend">
    <tspan class="letter">Q</tspan> base key 
    • <tspan class="accent">à</tspan> 1dk (tap <tspan class="deadKey">★</tspan>) 
    • <tspan class="accent2">À</tspan> Shifted
    • <tspan class="sym">|</tspan> Symbol (hold <tspan class="sym no-bold">Space</tspan>)
    • <tspan class="nav">F1</tspan> NavNum (hold/double-tap <tspan class="nav">PrtScr</tspan>)
  </text>
  <text x="8" y="58" class="legend">
    <tspan class="exit">NavNum</tspan> target layer
    • <tspan class="comboLbl">F1</tspan> combo, both keys pressed at once—e.g. [1]+[Q]→[F1]
  </text>
  <g class="encoder">
    <text x="418" y="152" class="encTitle">
      <tspan class="letter" style="text-anchor: middle">Cursor · </tspan>
      <tspan class="nav letter" style="text-anchor: middle">Scroll</tspan>
    </text>
    <text x="418" y="170" class="encTitle">
      <tspan class="sym letter no-bold" style="text-anchor: middle;">Media</tspan>
    </text>
    <circle cx="390" cy="212" r="26"/>
    <text x="368" y="209" class="encText">Left / Right</text>
    <text x="375" y="221" class="encText sym">Vol - / +</text>
    <circle cx="446" cy="212" r="26"/>
    <text x="424" y="209" class="encText">Up / Down</text>
    <text x="431" y="221" class="encText sym">⏮️ / ⏭️</text>
  </g>
  <g id="left">
    <g class="col_L specialKey">
      <g transform="translate(0 -60)">
        <rect width="52" height="52" rx="5" ry="5"/>
        <text x="5" y="17" class="capTL">Esc</text>
        <text x="42" y="42" class="accent" title="square">²</text>
        <text x="26" y="49" class="exit">Base</text>
      </g>
      <g transform="translate(0 0)">
        <rect width="52" height="52" rx="5" ry="5"/>
        <text x="26" y="30" class="cap">Tab</text>
      </g>
      <g transform="translate(0 60)">
        <rect width="52" height="52" rx="5" ry="5"/>
        <text x="26" y="30" class="cap">Shift</text>
      </g>
      <g transform="translate(0 120)">
        <rect width="52" height="52" rx="5" ry="5"/>
        <text x="26" y="30" class="cap">Ctrl</text>
      </g>
    </g>
    <g class="col_1">
      <g transform="translate(0 -60)">
        <rect width="52" height="52" rx="5" ry="5"/>
        <text x="14" y="17" class="level2">1</text>
        <text x="15" y="37" class="level1">$</text>
        <text x="42" y="34" class="accent">¤</text>
        <text x="49" y="47" class="nav">F1</text>
      </g>
      <g transform="translate(0 0)">
        <rect width="52" height="52" rx="5" ry="5"/>
        <text x="14" y="21" class="letter">Q</text>
        <text x="42" y="34" class="accent">â</text>
        <text x="10" y="46" class="sym">[</text>
      </g>
      <g transform="translate(0 60)">
        <rect width="52" height="52" rx="5" ry="5"/>
        <text x="14" y="21" class="letter">A</text>
        <text x="42" y="34" class="accent">à</text>
        <text x="10" y="46" class="sym">&lt;</text>
      </g>
      <g transform="translate(0 120)">
        <rect width="52" height="52" rx="5" ry="5"/>
        <text x="14" y="21" class="letter">Z</text>
        <text x="42" y="18" class="accent2">◁</text>
        <text x="42" y="34" class="accent">‹</text>
        <text x="10" y="46" class="sym">&amp;</text>
      </g>
    </g>
    <g class="col_2">
      <g transform="translate(0 -60)">
        <rect width="52" height="52" rx="5" ry="5"/>
        <text x="14" y="17" class="level2">2</text>
        <text x="15" y="37" class="level1">€</text>
        <text x="42" y="18" class="accent2">❝</text>
        <text x="42" y="34" class="accent">«</text>
        <text x="10" y="46" class="sym">{</text>
        <text x="49" y="47" class="nav">F2</text>
      </g>
      <g transform="translate(0 0)">
        <rect width="52" height="52" rx="5" ry="5"/>
        <text x="14" y="21" class="letter">B</text>
        <text x="42" y="34" class="accent">œ</text>
        <text x="10" y="46" class="sym">(</text>
        <text x="49" y="47" class="nav">Home</text>
      </g>
      <g transform="translate(0 60)">
        <rect width="52" height="52" rx="5" ry="5"/>
        <text x="14" y="21" class="letter">S</text>
        <text x="42" y="34" class="accent">è</text>
        <text x="10" y="46" class="sym">=</text>
        <text x="49" y="47" class="nav">Left</text>
      </g>
      <g transform="translate(0 120)">
        <rect width="52" height="52" rx="5" ry="5"/>
        <text x="14" y="21" class="letter">X</text>
        <text x="42" y="18" class="accent2">✖</text>
        <text x="42" y="34" class="accent">✗</text>
        <text x="10" y="46" class="sym">|</text>
      </g>
    </g>
    <g class="col_3">
      <g transform="translate(0 -60)">
        <rect width="52" height="52" rx="5" ry="5"/>
        <text x="14" y="17" class="level2">3</text>
        <text x="15" y="37" class="level1">"</text>
        <text x="42" y="18" class="accent2">❞</text>
        <text x="42" y="34" class="accent">»</text>
        <text x="10" y="46" class="sym">}</text>
        <text x="49" y="47" class="nav">F3</text>
      </g>
      <g transform="translate(0 0)">
        <rect width="52" height="52" rx="5" ry="5"/>
        <text x="14" y="21" class="letter">O</text>
        <text x="42" y="34" class="accent">ô</text>
        <text x="10" y="46" class="sym">)</text>
        <text x="49" y="47" class="nav">Up</text>
      </g>
      <g transform="translate(0 60)">
        <rect width="52" height="52" rx="5" ry="5"/>
        <text x="14" y="21" class="letter">E</text>
        <text x="42" y="34" class="accent">é</text>
        <text x="10" y="46" class="sym">-</text>
        <text x="49" y="47" class="nav">Down</text>
      </g>
      <g transform="translate(0 120)">
        <rect width="52" height="52" rx="5" ry="5"/>
        <text x="14" y="21" class="letter">C</text>
        <text x="42" y="34" class="accent">ç</text>
        <text x="10" y="46" class="sym">+</text>
      </g>
    </g>
    <g class="col_4">
      <g transform="translate(0 -60)">
        <rect width="52" height="52" rx="5" ry="5"/>
        <text x="14" y="17" class="level2">4</text>
        <text x="15" y="37" class="level1">'</text>
        <text x="42" y="34" class="accent">’</text>
        <text x="49" y="47" class="nav">F4</text>
      </g>
      <g transform="translate(0 0)">
        <rect width="52" height="52" rx="5" ry="5"/>
        <text x="14" y="21" class="letter">P</text>
        <text x="42" y="34" class="accent">§</text>
        <text x="10" y="46" class="sym">]</text>
        <text x="49" y="47" class="nav">End</text>
      </g>
      <g transform="translate(0 60)">
        <rect width="52" height="52" rx="5" ry="5"/>
        <text x="14" y="21" class="letter">N</text>
        <text x="42" y="34" class="accent">ê</text>
        <text x="10" y="46" class="sym">&gt;</text>
        <text x="49" y="47" class="nav">Right</text>
      </g>
      <g transform="translate(0 120)">
        <rect width="52" height="52" rx="5" ry="5"/>
        <text x="14" y="21" class="letter">V</text>
        <text x="42" y="18" class="accent2">▷</text>
        <text x="42" y="34" class="accent">›</text>
        <text x="10" y="46" class="sym">*</text>
      </g>
    </g>
    <g class="col_5">
      <g transform="translate(0 -60)">
        <rect width="52" height="52" rx="5" ry="5"/>
        <text x="14" y="17" class="level2">5</text>
        <text x="15" y="37" class="level1">%</text>
        <text x="42" y="34" class="accent">‰</text>
        <text x="49" y="47" class="nav">F5</text>
      </g>
      <g transform="translate(0 0)">
        <rect width="52" height="52" rx="5" ry="5"/>
        <text x="14" y="21" class="letter">W</text>
        <text x="42" y="34" class="accent">¶</text>
        <text x="49" y="47" class="nav">PgUp</text>
      </g>
      <g transform="translate(0 60)">
        <rect width="52" height="52" rx="5" ry="5"/>
        <text x="14" y="21" class="letter">F</text>
        <text x="42" y="34" class="accent">æ</text>
        <text x="10" y="46" class="sym">,</text>
        <text x="49" y="47" class="nav">PgDn</text>
      </g>
      <g transform="translate(0 120)">
        <rect width="52" height="52" rx="5" ry="5"/>
        <text x="15" y="21" class="pair">;</text>
        <text x="15" y="41" class="pair">,</text>
        <text x="25" y="41" class="sym">;</text>
      </g>
    </g>
    <g class="ext_L specialKey">
      <g>
        <rect width="52" height="52" rx="5" ry="5"/>
        <text x="26" y="22" class="cap">Space</text>
        <text x="26" y="38" class="cap">🔇</text>
      </g>
    </g>
    <g class="thb_5 specialKey" id="edit">
      <g>
        <rect width="52" height="82" rx="5" ry="5"/>
        <text x="5" y="17" class="capTL">Enter</text>
        <text x="25" y="42" class="accent">↩</text>
        <text x="26" y="70" class="exit">Editor</text>
      </g>
    </g>
    <g class="thb_4 specialKey">
      <g>
        <rect width="52" height="52" rx="5" ry="5"/>
        <text x="26" y="30" class="cap">Del</text>
      </g>
    </g>
    <g class="thb_3 specialKey">
      <g>
        <rect width="52" height="52" rx="5" ry="5"/>
        <text x="5" y="17" class="capTL">Right</text>
        <text x="14" y="47" class="exit">End</text>
        <text x="42" y="32" class="accent2">⇒</text>
        <text x="42" y="47" class="accent">→</text>
      </g>
    </g>
    <g class="thb_2 specialKey">
      <g>
        <rect width="52" height="52" rx="5" ry="5"/>
        <text x="5" y="17" class="capTL">Left</text>
        <text x="18" y="47" class="exit">Home</text>
        <text x="42" y="32" class="accent2">⇐</text>
        <text x="42" y="47" class="accent">←</text>
      </g>
    </g>
    <g class="thb_1 specialKey">
      <g>
        <rect width="52" height="52" rx="5" ry="5"/>
        <text x="5" y="17" class="capTL">Alt</text>
        <text x="42" y="32" class="accent2">⟺</text>
        <text x="42" y="47" class="accent">↔</text>
      </g>
    </g>
  </g>
  <g id="right">
    <g class="col_6">
      <g transform="translate(0 -60)">
        <rect width="52" height="52" rx="5" ry="5"/>
        <text x="14" y="17" class="level2">6</text>
        <text x="15" y="37" class="level1">(</text>
        <text x="49" y="47" class="nav">F6</text>
      </g>
      <g transform="translate(0 0)">
        <rect width="52" height="52" rx="5" ry="5"/>
        <text x="14" y="21" class="letter">J</text>
        <text x="42" y="34" class="accent">ø</text>
        <text x="10" y="46" class="sym">~</text>
        <text x="49" y="47" class="nav">/</text>
      </g>
      <g transform="translate(0 60)">
        <rect width="52" height="52" rx="5" ry="5"/>
        <text x="14" y="21" class="letter">L</text>
        <text x="42" y="18" class="accent2">├</text>
        <text x="42" y="34" class="accent">└</text>
        <text x="10" y="46" class="sym">.</text>
        <text x="49" y="47" class="nav">-</text>
      </g>
      <g transform="translate(0 120)">
        <rect width="52" height="52" rx="5" ry="5"/>
        <text x="15" y="21" class="pair">:</text>
        <text x="15" y="41" class="pair">.</text>
        <text x="42" y="18" class="accent2">•</text>
        <text x="42" y="34" class="accent">·</text>
        <text x="25" y="41" class="sym">:</text>
        <text x="49" y="47" class="nav">.</text>
      </g>
    </g>
    <g class="col_7">
      <g transform="translate(0 -60)">
        <rect width="52" height="52" rx="5" ry="5"/>
        <text x="14" y="17" class="level2">7</text>
        <text x="15" y="37" class="level1">)</text>
        <text x="49" y="47" class="nav">F7</text>
      </g>
      <g transform="translate(0 0)">
        <rect width="52" height="52" rx="5" ry="5"/>
        <text x="14" y="21" class="letter">M</text>
        <text x="42" y="34" class="accent">µ</text>
        <text x="10" y="46" class="sym">^</text>
        <text x="49" y="47" class="nav">7</text>
      </g>
      <g transform="translate(0 60)">
        <rect width="52" height="52" rx="5" ry="5"/>
        <text x="14" y="21" class="letter">R</text>
        <text x="42" y="18" class="accent2">│</text>
        <text x="42" y="34" class="accent">─</text>
        <text x="10" y="46" class="sym">/</text>
        <text x="49" y="47" class="nav">4</text>
      </g>
      <g transform="translate(0 120)">
        <rect width="52" height="52" rx="5" ry="5"/>
        <text x="14" y="21" class="letter">H</text>
        <text x="42" y="18" class="accent2">▪</text>
        <text x="42" y="34" class="accent">…</text>
        <text x="10" y="46" class="sym">\</text>
        <text x="49" y="47" class="nav">1</text>
      </g>
    </g>
    <g class="col_8">
      <g transform="translate(0 -60)">
        <rect width="52" height="52" rx="5" ry="5"/>
        <text x="14" y="17" class="level2">8</text>
        <text x="15" y="37" class="level1">@</text>
        <text x="49" y="47" class="nav">F8</text>
      </g>
      <g transform="translate(0 0)">
        <rect width="52" height="52" rx="5" ry="5"/>
        <text x="14" y="21" class="letter">D</text>
        <text x="49" y="47" class="nav">8</text>
        <text x="42" y="34" class="accent">÷</text>
      </g>
      <g transform="translate(0 60)">
        <rect width="52" height="52" rx="5" ry="5"/>
        <text x="14" y="21" class="letter">T</text>
        <text x="42" y="34" class="accent">ï</text>
        <text x="49" y="47" class="nav">5</text>
      </g>
      <g transform="translate(0 120)">
        <rect width="52" height="52" rx="5" ry="5"/>
        <text x="14" y="21" class="letter">G</text>
        <text x="42" y="34" class="accent">◆</text>
        <text x="10" y="46" class="sym">`</text>
        <text x="49" y="47" class="nav">2</text>
      </g>
    </g>
    <g class="col_9">
      <g transform="translate(0 -60)">
        <rect width="52" height="52" rx="5" ry="5"/>
        <text x="14" y="17" class="level2">9</text>
        <text x="15" y="37" class="level1">#</text>
        <text x="42" y="34" class="accent">♯</text>
        <text x="49" y="47" class="nav">F9</text>
      </g>
      <g transform="translate(0 0)">
        <rect width="52" height="52" rx="5" ry="5"/>
        <text x="26" y="28" class="deadKey big">★</text>
        <text x="26" y="47" class="exit">Emoji</text>
        <text x="49" y="47" class="nav">9</text>
      </g>
      <g transform="translate(0 60)">
        <rect width="52" height="52" rx="5" ry="5"/>
        <text x="14" y="21" class="letter">I</text>
        <text x="42" y="34" class="accent">î</text>
        <text x="49" y="47" class="nav">6</text>
      </g>
      <g transform="translate(0 120)">
        <rect width="52" height="52" rx="5" ry="5"/>
        <text x="14" y="17" class="level2">_</text>
        <text x="15" y="37" class="level1">-</text>
        <text x="42" y="18" class="accent2">—</text>
        <text x="42" y="34" class="accent">–</text>
        <text x="49" y="47" class="nav">3</text>
      </g>
    </g>
    <g class="col_0">
      <g transform="translate(0 -60)">
        <rect width="52" height="52" rx="5" ry="5"/>
        <text x="14" y="17" class="level2">0</text>
        <text x="15" y="37" class="level1">°</text>
        <text x="42" y="34" class="accent">±</text>
        <text x="49" y="47" class="nav">F10</text>
      </g>
      <g transform="translate(0 0)">
        <rect width="52" height="52" rx="5" ry="5"/>
        <text x="14" y="21" class="letter">Y</text>
        <text x="42" y="18" class="accent2">✱</text>
        <text x="42" y="34" class="accent">★</text>
        <text x="49" y="47" class="nav">*</text>
      </g>
      <g transform="translate(0 60)">
        <rect width="52" height="52" rx="5" ry="5"/>
        <text x="14" y="21" class="letter">U</text>
        <text x="42" y="34" class="accent">û</text>
        <text x="49" y="47" class="nav">+</text>
      </g>
      <g transform="translate(0 120)">
        <rect width="52" height="52" rx="5" ry="5"/>
        <text x="14" y="21" class="letter">K</text>
        <text x="42" y="18" class="accent2">✔</text>
        <text x="42" y="34" class="accent">✓</text>
        <text x="49" y="47" class="nav">=</text>
      </g>
    </g>
    <g class="col_R specialKey">
      <g transform="translate(0 -60)">
        <rect width="52" height="52" rx="5" ry="5"/>
        <text x="14" y="17" class="level2">+</text>
        <text x="15" y="37" class="level1">=</text>
        <text x="42" y="18" class="accent2">≈</text>
        <text x="42" y="34" class="accent">≠</text>
        <text x="49" y="47" class="nav">F11</text>
      </g>
      <g transform="translate(0 0)">
        <rect width="52" height="52" rx="5" ry="5"/>
        <text x="14" y="17" class="level2">µ</text>
        <text x="15" y="37" class="level1">*</text>
        <text x="42" y="18" class="accent2">≡</text>
        <text x="42" y="34" class="accent">×</text>
        <text x="10" y="46" class="sym">?</text>
        <text x="49" y="47" class="nav">F12</text>
      </g>
      <g transform="translate(0 60)">
        <rect width="52" height="52" rx="5" ry="5"/>
        <text x="14" y="17" class="level2">!</text>
        <text x="15" y="40" class="level1">?</text>
        <text x="27" y="41" class="sym">!</text>
        <text x="42" y="34" class="accent">ù</text>
      </g>
      <g transform="translate(0 120)" id="nav">
        <rect width="52" height="52" rx="5" ry="5"/>
        <text x="26" y="24" class="cap">PrtScr</text>
        <text x="26" y="45" class="exit">NavNum</text>
      </g>
    </g>
    <g class="ext_R specialKey">
      <g>
        <rect width="52" height="52" rx="5" ry="5"/>
        <text x="26" y="22" class="cap">Enter</text>
        <text x="26" y="38" class="cap">⏯️</text>
      </g>
    </g>
    <g class="thb_6 specialKey" id="sym">
      <g>
        <rect width="52" height="82" rx="5" ry="5"/>
        <text x="5" y="17" class="capTL">Space</text>
        <text x="26" y="47" class="accent word">NBSP</text>
        <text x="26" y="70" class="exit">Symbol</text>
      </g>
    </g>
    <g class="thb_7 specialKey">
      <g>
        <rect width="52" height="52" rx="5" ry="5"/>
        <text x="5" y="17" class="capTL">Bksp</text>
        <text x="42" y="17" class="accent2">▲</text>
        <text x="42" y="32" class="accent">⮝</text>
        <text x="49" y="47" class="nav">0</text>
      </g>
    </g>
    <g class="thb_8 specialKey">
      <g>
        <rect width="52" height="52" rx="5" ry="5"/>
        <text x="5" y="17" class="capTL">Up</text>
        <text x="18" y="47" class="exit">PgUp</text>
        <text x="42" y="17" class="accent2">⇑</text>
        <text x="42" y="32" class="accent">↑</text>
        <text x="49" y="47" class="nav">0</text>
      </g>
    </g>
    <g class="thb_9 specialKey">
      <g>
        <rect width="52" height="52" rx="5" ry="5"/>
        <text x="5" y="17" class="capTL">Down</text>
        <text x="18" y="47" class="exit">PgDn</text>
        <text x="42" y="17" class="accent2">⇓</text>
        <text x="42" y="32" class="accent">↓</text>
        <text x="49" y="47" class="nav">,</text>
      </g>
    </g>
    <g class="thb_0 specialKey">
      <g>
        <rect width="52" height="52" rx="5" ry="5"/>
        <text x="5" y="17" class="capTL">Win</text>
        <text x="42" y="17" class="accent2">▼</text>
        <text x="42" y="32" class="accent">⮟</text>
        <text x="49" y="47" class="nav">Enter</text>
      </g>
    </g>
  </g>
  <g class="combo">
    <rect x="81" y="137" width="18" height="11" rx="4" ry="4"/>
    <text x="90" y="145.5">F1</text>

    <rect x="141" y="122" width="18" height="11" rx="4" ry="4"/>
    <text x="150" y="130.5">F2</text>

    <rect x="201" y="114.5" width="18" height="11" rx="4" ry="4"/>
    <text x="210" y="123">F3</text>

    <rect x="261" y="122" width="18" height="11" rx="4" ry="4"/>
    <text x="270" y="130.5">F4</text>

    <rect x="321" y="129.5" width="18" height="11" rx="4" ry="4"/>
    <text x="330" y="138">F5</text>

    <rect x="497" y="129.5" width="18" height="11" rx="4" ry="4"/>
    <text x="506" y="138">F6</text>

    <rect x="557" y="122" width="18" height="11" rx="4" ry="4"/>
    <text x="566" y="130.5">F7</text>

    <rect x="617" y="114.5" width="18" height="11" rx="4" ry="4"/>
    <text x="626" y="123">F8</text>

    <rect x="677" y="122" width="18" height="11" rx="4" ry="4"/>
    <text x="686" y="130.5">F9</text>

    <rect x="735" y="137" width="22" height="11" rx="4" ry="4"/>
    <text x="746" y="145.5">F10</text>

    <rect x="795" y="137" width="22" height="11" rx="4" ry="4"/>
    <text x="806" y="145.5">F11</text>

    <rect x="765" y="92.5" width="22" height="11" rx="4" ry="4"/>
    <text x="776" y="101">F12</text>

    <rect x="680" y="321.5" width="26" height="11" rx="4" ry="4"/>
    <text x="694" y="330">Menu</text>
  </g>
</svg>
